HIERARCHY
ROOT Hips
{
	OFFSET -0.001795 -0.223333 0.028219
	CHANNELS 6 Xposition Yposition Zposition Zrotation Yrotation Xrotation 
	JOINT LeftUpLeg
	{
		OFFSET 0.069520 -0.091406 -0.006815
		CHANNELS 3 Zrotation Yrotation Xrotation
		JOINT LeftLeg
		{
			OFFSET 0.034277 -0.375199 -0.004496
			CHANNELS 3 Zrotation Yrotation Xrotation
			JOINT LeftFoot
			{
				OFFSET -0.013596 -0.397961 -0.043693
				CHANNELS 3 Zrotation Yrotation Xrotation
				JOINT LeftToe
				{
					OFFSET 0.026358 -0.055791 0.119288
					CHANNELS 3 Zrotation Yrotation Xrotation
					End Site
					{
						OFFSET 0.000000 0.000000 0.000000
					}
				}
			}
		}
	}
	JOINT RightUpLeg
	{
		OFFSET -0.067670 -0.090522 -0.004320
		CHANNELS 3 Zrotation Yrotation Xrotation
		JOINT RightLeg
		{
			OFFSET -0.038290 -0.382569 -0.008850
			CHANNELS 3 Zrotation Yrotation Xrotation
			JOINT RightFoot
			{
				OFFSET 0.015774 -0.398415 -0.042312
				CHANNELS 3 Zrotation Yrotation Xrotation
				JOINT RightToe
				{
					OFFSET -0.025372 -0.048144 0.123348
					CHANNELS 3 Zrotation Yrotation Xrotation
					End Site
					{
						OFFSET 0.000000 0.000000 0.000000
					}
				}
			}
		}
	}
	JOINT Spine
	{
		OFFSET -0.002533 0.108963 -0.026696
		CHANNELS 3 Zrotation Yrotation Xrotation
		JOINT Spine1
		{
			OFFSET 0.005487 0.135180 0.001092
			CHANNELS 3 Zrotation Yrotation Xrotation
			JOINT Spine2
			{
				OFFSET 0.001457 0.052922 0.025425
				CHANNELS 3 Zrotation Yrotation Xrotation
				JOINT Neck
				{
					OFFSET -0.002778 0.213870 -0.042857
					CHANNELS 3 Zrotation Yrotation Xrotation
					JOINT Head
					{
						OFFSET 0.005152 0.064970 0.051349
						CHANNELS 3 Zrotation Yrotation Xrotation
						End Site
						{
							OFFSET 0.000000 0.000000 0.000000
						}
					}
				}
				JOINT LeftShoulder
				{
					OFFSET 0.078845 0.121749 -0.034090
					CHANNELS 3 Zrotation Yrotation Xrotation
					JOINT LeftArm
					{
						OFFSET 0.090977 0.030469 -0.008868
						CHANNELS 3 Zrotation Yrotation Xrotation
						JOINT LeftForeArm
						{
							OFFSET 0.259612 -0.012772 -0.027456
							CHANNELS 3 Zrotation Yrotation Xrotation
							JOINT LeftHand
							{
								OFFSET 0.249234 0.008986 -0.001171
								CHANNELS 3 Zrotation Yrotation Xrotation
								End Site
								{
									OFFSET 0.000000 0.000000 0.000000
								}
							}
						}
					}
				}
				JOINT RightShoulder
				{
					OFFSET -0.081759 0.118833 -0.038615
					CHANNELS 3 Zrotation Yrotation Xrotation
					JOINT RightArm
					{
						OFFSET -0.096012 0.032551 -0.009143
						CHANNELS 3 Zrotation Yrotation Xrotation
						JOINT RightForeArm
						{
							OFFSET -0.253742 -0.013329 -0.021401
							CHANNELS 3 Zrotation Yrotation Xrotation
							JOINT RightHand
							{
								OFFSET -0.255298 0.007772 -0.005559
								CHANNELS 3 Zrotation Yrotation Xrotation
								End Site
								{
									OFFSET 0.000000 0.000000 0.000000
								}
							}
						}
					}
				}
			}
		}
	}
}
MOTION
Frames: 16
Frame Time: 0.050000
0.027665 0.947888 -0.031069 -1.306220 2.428290 9.912384 4.721830 -0.536588 -6.819122 -0.150533 0.151486 -4.219416 -1.677173 1.278175 9.961091 0.000000 0.000000 0.000000 -1.222534 0.503102 -4.908896 -5.558207 -0.014348 -6.659369 -3.474844 -11.766989 15.448948 0.000000 0.000000 0.000000 5.287683 0.642617 -10.442104 -2.412680 1.124776 -0.767982 -9.065692 11.729291 -6.550607 13.137075 -8.683275 -4.961933 0.000000 0.000000 0.000000 -11.583962 -0.524735 -3.237512 -47.910053 -10.369106 -0.526678 -92.483228 -75.632959 74.049736 0.000000 0.000000 0.000000 10.660367 -4.833577 -1.536902 54.179322 32.572862 12.215266 -139.814260 58.527583 -97.366472 0.000000 0.000000 0.000000 
0.027319 0.947816 -0.031618 -1.359930 2.823955 9.721579 4.812702 -0.524642 -6.572204 -0.434070 0.172049 -4.328782 -1.508873 1.445244 9.552155 0.000000 0.000000 0.000000 -1.012109 0.492090 -4.794673 -5.375499 -0.007921 -6.526912 -3.622955 -11.928515 15.147576 0.000000 0.000000 0.000000 5.254100 0.649899 -10.601118 -2.134795 0.987770 -0.004789 -8.981548 10.362546 -6.240996 12.562883 -8.621839 -3.919968 0.000000 0.000000 0.000000 -12.601443 -0.795500 -3.256500 -48.469248 -13.352629 0.709008 -106.864881 -80.438453 94.079449 0.000000 0.000000 0.000000 12.111718 -5.940621 -2.210759 55.282350 26.264307 8.958681 -145.472069 61.525933 -109.326067 0.000000 0.000000 0.000000 
0.027042 0.947520 -0.031770 -1.105025 2.987663 9.880912 4.649044 -0.542273 -6.807414 -0.347800 0.159454 -4.089876 -1.461341 1.483947 9.401959 0.000000 0.000000 0.000000 -1.272784 0.494537 -4.812920 -5.269553 -0.042557 -6.864146 -3.910280 -12.418933 15.229309 0.000000 0.000000 0.000000 5.163107 0.656824 -10.819636 -2.067655 0.948002 0.530483 -8.984116 9.152867 -6.063663 11.701657 -8.228280 -3.129741 0.000000 0.000000 0.000000 -13.910898 -0.660088 -3.504203 -48.564921 -16.364333 2.004966 -135.341671 -82.136177 126.733631 0.000000 0.000000 0.000000 13.228199 -7.481041 -3.149417 56.886954 18.345409 5.069455 -153.592879 65.451126 -125.443299 0.000000 0.000000 0.000000 
0.027076 0.947257 -0.031632 -1.036617 3.420132 9.806242 4.753798 -0.550726 -6.944385 -0.565741 0.157416 -3.540322 -1.371036 1.311344 8.513649 0.000000 0.000000 0.000000 -1.279694 0.494522 -4.816706 -4.884315 -0.028536 -6.533735 -4.515694 -13.376524 14.813472 0.000000 0.000000 0.000000 5.362608 0.644367 -10.639610 -2.029280 0.925811 0.604777 -8.773135 8.044761 -5.894251 10.917460 -7.965214 -2.062479 0.000000 0.000000 0.000000 -14.593572 -0.663634 -3.520413 -48.855696 -18.856233 3.047560 -163.210602 -81.200915 158.217855 0.000000 0.000000 0.000000 14.309125 -9.739312 -4.495942 57.947917 11.112438 1.463885 -163.072354 69.738908 -142.886126 0.000000 0.000000 0.000000 
0.027331 0.946734 -0.031459 -0.895571 3.790014 9.637384 4.699205 -0.557857 -7.042315 -0.678127 0.151332 -3.050934 -1.585839 1.081070 8.775512 0.000000 0.000000 0.000000 -1.333821 0.495366 -4.839647 -4.876067 0.005549 -6.161591 -4.752899 -13.729073 14.654078 0.000000 0.000000 0.000000 5.359928 0.633384 -10.544515 -1.744926 0.790494 0.618594 -8.568347 7.045127 -5.253497 10.253075 -7.395825 -2.261588 0.000000 0.000000 0.000000 -15.356542 -0.549363 -3.601333 -49.396692 -20.991782 3.941719 -176.421816 -79.141436 174.006266 0.000000 0.000000 0.000000 14.707949 -11.760062 -5.691681 58.589672 4.049272 -2.068677 -175.328200 72.655142 -161.903704 0.000000 0.000000 0.000000 
0.027694 0.946498 -0.031501 -0.733266 3.967946 9.443066 4.615802 -0.566571 -7.196423 -0.686233 0.132278 -2.334295 -1.691101 0.652014 8.191072 0.000000 0.000000 0.000000 -1.405055 0.517642 -5.110608 -4.745135 0.073631 -5.299408 -4.510414 -13.183285 13.753564 0.000000 0.000000 0.000000 5.502442 0.595059 -9.984094 -1.745309 0.798238 0.226729 -8.191036 6.036597 -4.998508 9.480392 -7.042962 -1.418474 0.000000 0.000000 0.000000 -16.024056 -0.965572 -3.375867 -49.926147 -22.267834 4.534308 177.958643 -77.746420 -178.524223 0.000000 0.000000 0.000000 15.030651 -12.990900 -6.508317 58.701117 -1.904687 -5.015178 169.149537 74.883297 176.120564 0.000000 0.000000 0.000000 
0.027941 0.946405 -0.031636 -0.487157 3.956077 9.382145 4.395929 -0.575026 -7.304545 -0.653563 0.119255 -1.952714 -1.724397 0.750442 8.537985 0.000000 0.000000 0.000000 -1.419242 0.538920 -5.367371 -5.050003 0.120652 -4.967601 -4.492144 -13.125468 13.508048 0.000000 0.000000 0.000000 5.575980 0.609327 -10.103315 -1.649998 0.745389 0.606694 -8.191614 5.463600 -4.914366 9.201877 -6.789562 -1.535308 0.000000 0.000000 0.000000 -16.330794 -0.797290 -3.411612 -50.454919 -23.144637 4.959546 176.836220 -77.326179 -176.793968 0.000000 0.000000 0.000000 15.215140 -14.071191 -7.169058 59.000194 -6.259227 -7.152854 154.365450 77.392103 157.393882 0.000000 0.000000 0.000000 
0.028063 0.946236 -0.031693 -0.241792 4.041923 9.286865 4.135443 -0.583883 -7.386139 -0.475118 0.095079 -1.622412 -1.628182 0.794202 8.224917 0.000000 0.000000 0.000000 -1.693285 0.542906 -5.449193 -5.126426 0.135624 -4.860543 -4.144674 -12.434752 13.135606 0.000000 0.000000 0.000000 5.601052 0.603221 -10.012597 -1.548106 0.698281 0.556587 -8.199522 4.969602 -4.851484 8.813131 -6.655447 -0.918395 0.000000 0.000000 0.000000 -16.794104 -1.321657 -3.185647 -50.420999 -23.695328 5.228798 177.103248 -77.122069 -176.893136 0.000000 0.000000 0.000000 15.170205 -14.446724 -7.416514 59.293408 -9.773574 -8.885144 139.947639 78.881226 140.432380 0.000000 0.000000 0.000000 
0.028034 0.946071 -0.031679 -0.168839 4.017915 9.107386 4.032694 -0.579889 -7.318727 -0.414365 0.081435 -1.338001 -1.349788 1.264404 8.156873 0.000000 0.000000 0.000000 -1.710760 0.540420 -5.435252 -5.204509 0.157026 -4.677601 -4.270354 -12.668748 13.134819 0.000000 0.000000 0.000000 5.615388 0.593876 -9.839065 -1.490414 0.669362 0.648792 -8.244408 4.692473 -4.955657 8.823273 -6.578785 -1.203628 0.000000 0.000000 0.000000 -16.743704 -1.436304 -3.069275 -50.877893 -23.697519 5.282390 -173.681434 -76.811874 171.560007 0.000000 0.000000 0.000000 15.035959 -14.840652 -7.633530 59.564617 -11.994358 -9.983428 118.976540 79.750068 117.049207 0.000000 0.000000 0.000000 
0.027941 0.945893 -0.031668 -0.261047 3.913063 9.108650 4.147703 -0.577102 -7.324779 -0.236784 0.061547 -1.193394 -1.057347 1.698989 7.968869 0.000000 0.000000 0.000000 -1.745547 0.528938 -5.298254 -5.142990 0.118315 -5.066973 -4.060501 -12.330139 13.422861 0.000000 0.000000 0.000000 5.876102 0.613423 -9.918248 -1.654933 0.748769 0.599545 -8.209304 4.520378 -4.934563 8.899321 -6.539814 -1.558389 0.000000 0.000000 0.000000 -16.292429 -1.749200 -2.775711 -51.785543 -23.903458 5.442430 -165.153850 -76.195255 160.660448 0.000000 0.000000 0.000000 14.384672 -15.113333 -7.697878 59.706128 -14.098471 -10.989251 101.907574 78.363444 97.097132 0.000000 0.000000 0.000000 
0.027823 0.945969 -0.031846 -0.217802 3.727839 8.901169 4.148676 -0.563527 -7.148095 -0.200617 0.046376 -0.822303 -0.988801 1.770211 7.885422 0.000000 0.000000 0.000000 -1.825923 0.522285 -5.238287 -5.087778 0.121200 -4.988998 -4.009346 -12.310393 13.824973 0.000000 0.000000 0.000000 6.016868 0.600135 -9.602697 -1.744003 0.795896 0.431998 -8.183344 4.733325 -4.797856 8.938026 -6.472248 -1.945955 0.000000 0.000000 0.000000 -16.114581 -1.982511 -2.647754 -51.815750 -23.697800 5.330901 -158.056736 -74.220174 150.697314 0.000000 0.000000 0.000000 13.945470 -15.254247 -7.682773 59.320357 -15.724902 -11.657365 90.176547 76.291570 82.925425 0.000000 0.000000 0.000000 
0.027690 0.945913 -0.032163 -0.238304 3.387388 9.051293 4.092708 -0.560618 -7.100572 0.076963 0.018150 -0.743016 -0.543978 2.398442 7.541085 0.000000 0.000000 0.000000 -1.944480 0.535891 -5.397460 -4.979669 0.103338 -5.092632 -3.590571 -11.589985 13.776481 0.000000 0.000000 0.000000 6.203983 0.633893 -9.871027 -1.823771 0.830268 0.660086 -8.173083 4.766723 -4.842928 9.074819 -6.418273 -2.536616 0.000000 0.000000 0.000000 -15.531748 -2.159506 -2.416764 -51.954347 -23.918859 5.415411 -154.293440 -73.585732 145.501509 0.000000 0.000000 0.000000 12.786785 -15.368757 -7.563554 59.125391 -16.366975 -11.857058 83.836772 72.765751 72.977947 0.000000 0.000000 0.000000 
0.027542 0.946072 -0.032650 -0.246726 3.219789 8.913565 4.121260 -0.543362 -6.849167 0.034149 0.025307 -0.834662 -0.438585 2.647836 7.722949 0.000000 0.000000 0.000000 -1.759529 0.538207 -5.414262 -5.147702 0.120547 -5.002800 -3.459560 -11.388065 13.853380 0.000000 0.000000 0.000000 6.487662 0.643759 -9.779193 -2.096826 0.965628 0.356124 -8.152481 5.071544 -4.583807 9.082954 -6.357750 -2.822433 0.000000 0.000000 0.000000 -15.407991 -2.575183 -2.231726 -51.361825 -23.789557 5.268323 -150.770769 -72.748753 140.338934 0.000000 0.000000 0.000000 12.188900 -15.062774 -7.296329 58.665703 -16.945268 -12.001327 81.034888 69.729480 67.373643 0.000000 0.000000 0.000000 
0.027382 0.946373 -0.033282 -0.195925 3.075644 8.882049 4.203672 -0.529164 -6.649270 0.000358 0.034375 -1.007553 -0.094614 3.409760 8.127823 0.000000 0.000000 0.000000 -1.793821 0.531328 -5.338709 -5.214336 0.110322 -5.157080 -3.357654 -11.246508 14.010318 0.000000 0.000000 0.000000 6.429760 0.649122 -9.819552 -2.169630 0.995884 0.690190 -8.078362 5.219034 -4.823809 8.859124 -6.232500 -2.639149 0.000000 0.000000 0.000000 -15.025678 -2.595588 -2.164084 -50.538677 -24.054292 5.298781 -147.266247 -72.932475 135.870592 0.000000 0.000000 0.000000 12.257786 -14.716892 -7.134302 57.204171 -15.546422 -11.035857 81.237669 67.835427 65.762347 0.000000 0.000000 0.000000 
0.027269 0.946681 -0.034099 -0.322673 3.006347 8.748752 4.350145 -0.494539 -6.087494 0.018884 0.052808 -1.594601 0.013895 3.605143 8.155545 0.000000 0.000000 0.000000 -1.466217 0.503618 -4.995753 -5.571519 0.132593 -5.142800 -3.150752 -10.878929 13.978800 0.000000 0.000000 0.000000 6.618791 0.669853 -9.906119 -2.027833 0.930265 0.656101 -8.099646 5.511234 -4.564256 8.966811 -6.398278 -2.356090 0.000000 0.000000 0.000000 -14.742264 -2.754005 -2.076029 -49.214618 -24.092924 5.139897 -147.034429 -73.424705 135.845260 0.000000 0.000000 0.000000 11.823794 -13.978208 -6.688116 56.418156 -12.650141 -9.590681 89.861552 67.883098 74.190474 0.000000 0.000000 0.000000 
0.027247 0.946907 -0.035077 -0.385214 2.277725 8.891731 4.373459 -0.487810 -6.047326 -0.083518 0.064552 -1.681593 0.354866 4.357521 8.758859 0.000000 0.000000 0.000000 -1.432072 0.499639 -4.936820 -5.528268 0.093897 -5.483765 -2.950880 -10.639870 14.094455 0.000000 0.000000 0.000000 7.038079 0.728106 -10.200387 -2.216999 1.024732 0.591115 -7.923834 6.226533 -4.461870 8.769227 -5.907320 -3.664537 0.000000 0.000000 0.000000 -14.285429 -1.869769 -2.417775 -48.918461 -23.765623 4.907897 -143.559344 -73.601526 131.502393 0.000000 0.000000 0.000000 11.357797 -13.222694 -6.236164 56.292163 -7.945645 -7.461439 105.900206 70.182751 93.480491 0.000000 0.000000 0.000000 
